<?xml version="1.0" encoding="UTF-8"?>
<svg version="1.1" xmlns="http://www.w3.org/2000/svg" width="435" height="286">
<path d="M0 0 C1.91652626 -0.00435374 3.83305078 -0.00953908 5.74957275 -0.01548767 C10.92960232 -0.02882017 16.10955867 -0.02946258 21.28960204 -0.02692437 C25.62803487 -0.02585039 29.96645314 -0.03074911 34.30488282 -0.03552979 C44.54978334 -0.04660589 54.79464718 -0.04707358 65.03955078 -0.04101562 C75.5737646 -0.03498186 86.10784466 -0.04727609 96.64203566 -0.06858569 C105.71590177 -0.08625963 114.78972552 -0.0921938 123.86360818 -0.08894795 C129.2698034 -0.0871436 134.67590327 -0.08968567 140.08208275 -0.10366249 C145.1719792 -0.11633022 150.26166886 -0.11421298 155.3515625 -0.1012516 C157.20735561 -0.09890532 159.06316367 -0.10154952 160.91893959 -0.10987473 C195.51925944 -0.25376072 225.26481528 11.95748259 249.92114258 36.2746582 C250.78610352 37.12672852 251.65106445 37.97879883 252.54223633 38.85668945 C263.6768666 50.44295839 274.37231034 66.80642545 277.97192383 82.6496582 C278.44178711 84.4440332 278.44178711 84.4440332 278.92114258 86.2746582 C281.1833964 87.34720171 281.1833964 87.34720171 283.92114258 88.2746582 C290.0234418 93.65272851 293.30474794 99.71699294 294.20385742 107.82373047 C294.3218023 110.48097388 294.33098259 113.11520363 294.29614258 115.7746582 C294.30774414 116.66024414 294.3193457 117.54583008 294.33129883 118.45825195 C294.29992457 125.58020806 293.48377563 132.20704958 288.80004883 137.8137207 C287.65342773 138.84625977 287.65342773 138.84625977 286.48364258 139.8996582 C281.63287588 144.9613278 280.43515979 149.53420093 278.93286133 156.27075195 C272.40454189 184.27579773 250.63396135 209.07369655 226.92114258 224.2746582 C221.81662452 227.34907884 216.56638659 230.15439503 211.31762695 232.97241211 C207.1895691 235.21559269 203.11994181 237.55981309 199.04614258 239.8996582 C197.27271232 240.91529585 195.49927457 241.9309204 193.72583008 242.9465332 C191.79089997 244.05584842 189.85600608 245.16522682 187.92114258 246.2746582 C183.33879222 248.90137835 178.75557872 251.52658073 174.17114258 254.1496582 C173.58096344 254.48743286 172.9907843 254.82520752 172.38272095 255.17321777 C162.83313265 260.63645017 153.24457794 266.02689385 143.63061523 271.3762207 C136.66019109 275.26563823 129.75953219 279.25766369 122.95556641 283.43237305 C118.24322944 286.2746582 118.24322944 286.2746582 114.92114258 286.2746582 C114.92114258 271.4246582 114.92114258 256.5746582 114.92114258 241.2746582 C108.95793945 241.29822388 108.95793945 241.29822388 102.87426758 241.32226562 C89.69481631 241.37212013 76.51536634 241.40532372 63.33584595 241.43009472 C55.35023155 241.4455055 47.36470705 241.466483 39.37915039 241.50097656 C32.41175775 241.5310576 25.44443027 241.55027516 18.47697449 241.55692369 C14.79425987 241.56080459 11.11173153 241.56980133 7.42907715 241.59184837 C-10.58635954 241.69549713 -27.61748678 241.71833735 -44.64135742 235.0871582 C-45.4316333 234.78600098 -46.22190918 234.48484375 -47.03613281 234.17456055 C-79.27765481 221.53757145 -101.99823169 197.85203481 -116.16870117 166.67700195 C-117.09957309 164.21997952 -117.6408169 161.86140274 -118.07885742 159.2746582 C-118.90385742 159.2127832 -119.72885742 159.1509082 -120.57885742 159.0871582 C-127.38687864 157.50672471 -132.20514189 153.58659249 -136.75463867 148.41137695 C-141.11113765 141.38186385 -141.5742487 134.91562271 -141.51635742 126.8371582 C-141.53633789 125.85166992 -141.55631836 124.86618164 -141.5769043 123.85083008 C-141.5703931 114.02543415 -138.53343196 107.11352146 -131.88745117 99.9387207 C-129.0364767 97.31557789 -126.03522483 95.2746582 -122.07885742 95.2746582 C-121.85842773 94.23631836 -121.85842773 94.23631836 -121.63354492 93.17700195 C-117.33585694 74.4301906 -108.83077122 56.73163016 -96.07885742 42.2746582 C-95.34280273 41.39551758 -94.60674805 40.51637695 -93.84838867 39.6105957 C-83.74108311 27.90392858 -71.73191798 19.36062906 -58.07885742 12.2746582 C-57.1790918 11.80415039 -56.27932617 11.33364258 -55.35229492 10.84887695 C-49.92558631 8.20110221 -44.34999088 6.314871 -38.57885742 4.5871582 C-37.90298584 4.38453369 -37.22711426 4.18190918 -36.53076172 3.97314453 C-24.28341433 0.4695174 -12.64870879 -0.01905405 0 0 Z " fill="#0E46A3" transform="translate(141.078857421875,-0.274658203125)"/>
<path d="M0 0 C1.76066519 -0.00571348 3.52132667 -0.01268149 5.28198242 -0.02079773 C10.03218156 -0.03863817 14.78219505 -0.03757778 19.53241754 -0.03185534 C23.51311495 -0.02874964 27.49377742 -0.03487137 31.47446984 -0.04089409 C40.87412315 -0.05490837 50.27368553 -0.05340443 59.67333984 -0.04199219 C69.3357099 -0.03051942 78.99780211 -0.04457963 88.66013557 -0.07138866 C96.9875267 -0.09361952 105.31483109 -0.1001663 113.64224976 -0.09431225 C118.60185701 -0.09095844 123.56128631 -0.09325183 128.5208683 -0.11056328 C133.18896742 -0.12614817 137.85665845 -0.1219503 142.52474213 -0.10325813 C144.22614914 -0.09960368 145.92758719 -0.10258752 147.62896538 -0.11314392 C167.33965242 -0.22599009 185.61495699 4.21827199 200.20556641 18.29614258 C201.56872085 19.65398753 202.91516161 21.0285518 204.26049805 22.40405273 C204.92694336 23.03827148 205.59338867 23.67249023 206.2800293 24.32592773 C218.5413682 36.83636833 222.81776036 54.99102583 222.68066406 71.9909668 C221.99777666 91.18163005 213.84199019 107.12799145 200.26049805 120.40405273 C199.41938477 121.29350586 199.41938477 121.29350586 198.5612793 122.20092773 C187.62832807 132.87562027 169.64697499 138.49461804 154.775177 138.55795288 C153.67573629 138.56452626 153.67573629 138.56452626 152.55408466 138.57123244 C150.10872622 138.58453998 147.66340374 138.59078118 145.21801758 138.59692383 C143.45986268 138.6048314 141.70170937 138.61310075 139.94355774 138.6217041 C134.17682429 138.64785725 128.41008385 138.66322908 122.64331055 138.67749023 C120.65197623 138.68285343 118.66064195 138.68823095 116.66930771 138.69362259 C108.37897685 138.71524506 100.08864788 138.73397738 91.79829597 138.74524498 C79.95197981 138.76145577 68.10599306 138.79457109 56.25980103 138.85164583 C47.91215307 138.89048031 39.5645927 138.90989383 31.21685684 138.91516554 C26.24083756 138.91880167 21.26517015 138.93063596 16.28924942 138.96326828 C11.59904591 138.99358608 6.90940282 138.99957725 2.21912193 138.98788452 C0.51005514 138.98766573 -1.19903947 138.9958072 -2.9080143 139.01353836 C-22.64260839 139.20692591 -40.79140457 133.70142345 -55.48901367 119.86767578 C-69.4367337 106.01082796 -76.78200174 88.66073195 -77.11450195 69.15405273 C-77.05649812 51.60277626 -70.22934564 34.15626074 -58.01416016 21.43237305 C-41.47799873 5.08010392 -22.59695359 -0.06669812 0 0 Z " fill="#FCFEFE" transform="translate(141.739501953125,56.595947265625)"/>
<path d="M0 0 C7.90354007 4.92464588 13.34766341 11.39148452 15.5625 20.5 C16.6492915 27.76791812 15.2513321 34.15852459 11.5625 40.5 C7.39777279 45.84411899 2.25454393 50.78709209 -4.4375 52.5 C-13.70377498 53.58953961 -21.79132607 53.19883375 -29.4375 47.5 C-35.4695154 41.98134762 -39.01589341 35.43334149 -39.59765625 27.24609375 C-39.87861393 19.24490771 -38.37302243 13.61896698 -33.375 7.3125 C-24.85009891 -1.67320656 -11.74367508 -5.16536399 0 0 Z " fill="#14A5BC" transform="translate(297.4375,100.5)"/>
<path d="M0 0 C6.39737801 5.0511886 10.24696797 10.85902053 11.38671875 18.99609375 C11.75993216 28.04160823 10.14158204 34.83001265 4.078125 41.65625 C-3.4151828 48.75050591 -10.46414378 50.26203718 -20.68359375 50 C-28.66763406 49.04777501 -33.51884349 44.70987833 -38.58203125 38.75390625 C-43.99956466 30.99251772 -44.02197131 23.67068148 -43.08984375 14.59375 C-40.92676961 7.20585908 -35.2273379 1.95937627 -29.08984375 -2.40625 C-19.87641768 -6.57836747 -8.33773295 -5.61043712 0 0 Z " fill="#13A5BC" transform="translate(159.08984375,103.40625)"/>
</svg>
