<?xml version="1.0" encoding="UTF-8"?>
<svg version="1.1" xmlns="http://www.w3.org/2000/svg" width="194" height="73">
<path d="M0 0 C1.1928083 -0.01354271 1.1928083 -0.01354271 2.40971375 -0.02735901 C4.08812721 -0.04182658 5.76659663 -0.05073955 7.44506836 -0.05444336 C9.99365887 -0.06632207 12.5398117 -0.11552204 15.08789062 -0.16601562 C30.00793747 -0.31728376 30.00793747 -0.31728376 35.35229492 3.99633789 C39.19065421 7.91401075 42.12266424 11.90763357 43.38671875 17.30859375 C41.93777026 23.76300067 39.04876516 30.20293994 33.58984375 34.2109375 C29.39043316 36.78784855 25.06233604 39.08311761 20.69921875 41.37109375 C24.98921875 41.70109375 29.27921875 42.03109375 33.69921875 42.37109375 C33.69921875 47.65109375 33.69921875 52.93109375 33.69921875 58.37109375 C31.10046875 58.41234375 28.50171875 58.45359375 25.82421875 58.49609375 C25.00711426 58.51430176 24.19000977 58.53250977 23.34814453 58.55126953 C21.46426826 58.56586592 19.58052563 58.47052857 17.69921875 58.37109375 C15.69921875 56.37109375 15.69921875 56.37109375 15.46875 53.8046875 C15.48292969 52.81597656 15.49710938 51.82726563 15.51171875 50.80859375 C15.51816406 49.81730469 15.52460938 48.82601562 15.53125 47.8046875 C15.69921875 45.37109375 15.69921875 45.37109375 16.69921875 44.37109375 C15.70921875 43.87609375 15.70921875 43.87609375 14.69921875 43.37109375 C14.69921875 41.39109375 14.69921875 39.41109375 14.69921875 37.37109375 C13.82354248 37.41036987 13.82354248 37.41036987 12.93017578 37.45043945 C-9.36328056 38.3197302 -9.36328056 38.3197302 -16.30078125 32.37109375 C-18.51623407 29.96759188 -20.30078125 27.7769903 -20.30078125 24.37109375 C-21.29078125 24.04109375 -22.28078125 23.71109375 -23.30078125 23.37109375 C-23.30078125 20.73109375 -23.30078125 18.09109375 -23.30078125 15.37109375 C-22.31078125 15.04109375 -21.32078125 14.71109375 -20.30078125 14.37109375 C-20.25953125 13.69046875 -20.21828125 13.00984375 -20.17578125 12.30859375 C-18.94032647 8.16099557 -16.5409882 5.21702773 -13.30078125 2.37109375 C-8.96096293 0.14318188 -4.7795198 0.03379513 0 0 Z " fill="#134AA5" transform="translate(120.30078125,-0.37109375)"/>
<path d="M0 0 C1.55288697 -0.01654596 3.10569821 -0.04381876 4.65820312 -0.08203125 C6.90184861 -0.13694648 9.14371145 -0.15869372 11.38793945 -0.17333984 C12.07769363 -0.19600922 12.76744781 -0.21867859 13.47810364 -0.24203491 C17.37059242 -0.22506817 18.89700544 0.24465235 21.93945312 2.7578125 C24.96928432 6.52443791 25.49012486 8.50924445 25.0246582 13.35009766 C21.86676347 18.92904502 21.86676347 18.92904502 19.0246582 20.35009766 C16.60244894 20.48504745 14.2102537 20.56264691 11.78637695 20.58837891 C11.06859573 20.59645065 10.35081451 20.6045224 9.61128235 20.61283875 C8.09065158 20.62667551 6.5699898 20.6373995 5.04931641 20.64526367 C2.73124778 20.66245607 0.41461351 20.70633946 -1.90307617 20.75048828 C-3.38158132 20.76061743 -4.86009859 20.76913284 -6.33862305 20.77587891 C-7.37325432 20.80214104 -7.37325432 20.80214104 -8.42878723 20.82893372 C-13.22032328 20.80749466 -15.61206233 19.73464127 -18.9753418 16.35009766 C-20.57620807 13.14836512 -20.47451269 9.82432707 -19.9753418 6.35009766 C-15.04073094 -1.38079269 -8.25197658 0.06444815 0 0 Z " fill="#F9FCFD" transform="translate(126.975341796875,8.64990234375)"/>
<path d="M0 0 C3.97921094 -0.02682614 7.95824341 -0.04675393 11.9375 -0.0625 C13.07380859 -0.07087891 14.21011719 -0.07925781 15.38085938 -0.08789062 C16.46044922 -0.09111328 17.54003906 -0.09433594 18.65234375 -0.09765625 C20.15269165 -0.10551147 20.15269165 -0.10551147 21.68334961 -0.11352539 C24 0 24 0 25 1 C25.07234679 3.52309429 24.99635022 6.03148447 24.9375 8.5546875 C24.88454506 11.14011009 24.88454506 11.14011009 26 14 C31.94 14 37.88 14 44 14 C40.6278125 13.814375 40.6278125 13.814375 37.1875 13.625 C30.375 13.25 30.375 13.25 27 11 C26.63671875 8.90625 26.63671875 8.90625 26.6875 6.5 C26.69136719 5.7059375 26.69523437 4.911875 26.69921875 4.09375 C27 2 27 2 29 0 C31.24658203 -0.22705078 31.24658203 -0.22705078 34.0078125 -0.1953125 C34.99394531 -0.18886719 35.98007813 -0.18242188 36.99609375 -0.17578125 C38.54490234 -0.15064453 38.54490234 -0.15064453 40.125 -0.125 C41.16527344 -0.11597656 42.20554688 -0.10695312 43.27734375 -0.09765625 C45.85179092 -0.07403747 48.42578212 -0.04110149 51 0 C51 1.65 51 3.3 51 5 C45.39 5 39.78 5 34 5 C34 5.66 34 6.32 34 7 C35.13179687 6.96519531 36.26359375 6.93039063 37.4296875 6.89453125 C38.91144353 6.86639664 40.39321556 6.83909613 41.875 6.8125 C42.99455078 6.77479492 42.99455078 6.77479492 44.13671875 6.73632812 C46.3046875 6.70703125 46.3046875 6.70703125 50 7 C52.45811625 10.68717438 52.31118164 12.64345704 52 17 C51.34 17.99 50.68 18.98 50 20 C47.01904297 20.34057617 47.01904297 20.34057617 43.2421875 20.29296875 C42.57913605 20.28872391 41.91608459 20.28447906 41.23294067 20.28010559 C39.11321559 20.26329971 36.99443812 20.22564701 34.875 20.1875 C33.43881581 20.17245549 32.00261672 20.15876668 30.56640625 20.14648438 C27.04396236 20.1133909 23.52207364 20.0615968 20 20 C19.67 17.69 19.34 15.38 19 13 C15.04 13 11.08 13 7 13 C7 15.31 7 17.62 7 20 C4.69 20 2.38 20 0 20 C0 13.4 0 6.8 0 0 Z M7 5 C7 5.66 7 6.32 7 7 C10.63 7 14.26 7 18 7 C18 6.34 18 5.68 18 5 C14.37 5 10.74 5 7 5 Z " fill="#0E46A2" transform="translate(82,39)"/>
<path d="M0 0 C1.98 0 3.96 0 6 0 C6 3.96 6 7.92 6 12 C9.96 12 13.92 12 18 12 C17.87625 10.14375 17.87625 10.14375 17.75 8.25 C17.55219106 5.28286592 17.83883916 4.23207161 19.5625 1.75 C22.90393157 -0.64897651 25.18296087 -0.40063108 29.25 -0.25 C30.51328125 -0.21390625 31.7765625 -0.1778125 33.078125 -0.140625 C34.52445313 -0.07101563 34.52445313 -0.07101563 36 0 C36 3.63 36 7.26 36 11 C32.04 11 28.08 11 24 11 C24 12.65 24 14.3 24 16 C20.37515001 16.08681476 16.75056557 16.14032721 13.125 16.1875 C12.09246094 16.21263672 11.05992187 16.23777344 9.99609375 16.26367188 C9.00996094 16.27333984 8.02382812 16.28300781 7.0078125 16.29296875 C6.09660645 16.3086792 5.18540039 16.32438965 4.24658203 16.34057617 C3.50520996 16.22818604 2.76383789 16.1157959 2 16 C-0.42130331 12.36804504 -0.21022785 10.61650652 -0.125 6.3125 C-0.09792969 4.54326172 -0.09792969 4.54326172 -0.0703125 2.73828125 C-0.04710937 1.83464844 -0.02390625 0.93101563 0 0 Z " fill="#11A4BC" transform="translate(155,42)"/>
<path d="M0 0 C1.98 0 3.96 0 6 0 C6.06058594 0.92683594 6.12117188 1.85367188 6.18359375 2.80859375 C6.26738281 4.00613281 6.35117187 5.20367187 6.4375 6.4375 C6.51871094 7.63246094 6.59992187 8.82742187 6.68359375 10.05859375 C6.67656114 12.88570244 6.67656114 12.88570244 8 14 C12.65088715 14.30523962 12.65088715 14.30523962 17 13 C17.46954261 9.95418731 17.46954261 9.95418731 17.625 6.4375 C17.69976562 5.23996094 17.77453125 4.04242188 17.8515625 2.80859375 C17.90054688 1.88175781 17.94953125 0.95492187 18 0 C19.98 0 21.96 0 24 0 C24.10787818 2.77186988 24.18723327 5.53955537 24.25 8.3125 C24.30027344 9.49102539 24.30027344 9.49102539 24.3515625 10.69335938 C24.44873214 16.40207598 24.44873214 16.40207598 22.484375 19.01953125 C18.99424701 20.39692453 15.69333518 20.43521742 12 20.375 C10.93265625 20.39240234 10.93265625 20.39240234 9.84375 20.41015625 C6.84058609 20.3933475 4.31635829 20.12485209 1.515625 19.01953125 C-0.95630298 15.72575092 -0.42019102 12.30217034 -0.25 8.3125 C-0.23195312 7.51521484 -0.21390625 6.71792969 -0.1953125 5.89648438 C-0.14822247 3.93047551 -0.07647899 1.96508506 0 0 Z " fill="#0E46A2" transform="translate(56,39)"/>
<path d="M0 0 C0.73283203 0.00773437 1.46566406 0.01546875 2.22070312 0.0234375 C2.94966797 0.01570313 3.67863281 0.00796875 4.4296875 0 C8.24158536 0.01397579 10.04131422 0.11217823 13.28320312 2.2734375 C13.53320312 5.8359375 13.53320312 5.8359375 13.28320312 9.2734375 C11.34229487 11.21434576 7.8102641 10.67263185 5.22070312 10.8359375 C2.93132812 10.9803125 0.64195313 11.1246875 -1.71679688 11.2734375 C3.23320313 11.6034375 8.18320313 11.9334375 13.28320312 12.2734375 C13.28320312 13.5934375 13.28320312 14.9134375 13.28320312 16.2734375 C10.15828061 16.33135594 7.03349547 16.36700496 3.90820312 16.3984375 C3.01875 16.41519531 2.12929687 16.43195312 1.21289062 16.44921875 C0.36210938 16.45566406 -0.48867187 16.46210937 -1.36523438 16.46875 C-2.54351807 16.48446045 -2.54351807 16.48446045 -3.74560547 16.50048828 C-5.71679688 16.2734375 -5.71679688 16.2734375 -7.71679688 14.2734375 C-7.98242188 11.5234375 -7.98242188 11.5234375 -7.96679688 8.2734375 C-7.97195312 7.2009375 -7.97710937 6.1284375 -7.98242188 5.0234375 C-7.47255634 -0.25517035 -4.66590175 0.0171383 0 0 Z M-1.71679688 4.2734375 C-2.04679687 4.9334375 -2.37679687 5.5934375 -2.71679688 6.2734375 C0.91320312 6.2734375 4.54320313 6.2734375 8.28320312 6.2734375 C7.95320313 5.6134375 7.62320313 4.9534375 7.28320312 4.2734375 C4.31320313 4.2734375 1.34320313 4.2734375 -1.71679688 4.2734375 Z " fill="#11A4BC" transform="translate(82.716796875,19.7265625)"/>
<path d="M0 0 C2.413125 0.061875 4.82625 0.12375 7.3125 0.1875 C7.3125 5.4675 7.3125 10.7475 7.3125 16.1875 C4.71375 16.22875 2.115 16.27 -0.5625 16.3125 C-1.78815674 16.33981201 -1.78815674 16.33981201 -3.03857422 16.36767578 C-4.92245049 16.38227217 -6.80619312 16.28693482 -8.6875 16.1875 C-11.28936108 13.58563892 -10.98560177 12.36395645 -11 8.75 C-11.01675781 7.78191406 -11.03351563 6.81382813 -11.05078125 5.81640625 C-10.6875 3.1875 -10.6875 3.1875 -9.6484375 1.3515625 C-6.58225335 -0.46860259 -3.44930193 -0.12464698 0 0 Z " fill="#11A4BC" transform="translate(146.6875,41.8125)"/>
<path d="M0 0 C2.77109307 -0.05392397 5.54113818 -0.09363455 8.3125 -0.125 C9.09818359 -0.14175781 9.88386719 -0.15851562 10.69335938 -0.17578125 C11.45068359 -0.18222656 12.20800781 -0.18867188 12.98828125 -0.1953125 C13.68477783 -0.20578613 14.38127441 -0.21625977 15.09887695 -0.22705078 C17 0 17 0 20 2 C20.36328125 4.75 20.36328125 4.75 20.3125 8 C20.30863281 9.0725 20.30476563 10.145 20.30078125 11.25 C20 14 20 14 18 16 C16.12060547 16.22705078 16.12060547 16.22705078 13.8671875 16.1953125 C13.06152344 16.18886719 12.25585938 16.18242188 11.42578125 16.17578125 C10.58402344 16.15902344 9.74226563 16.14226563 8.875 16.125 C7.60076172 16.11146484 7.60076172 16.11146484 6.30078125 16.09765625 C4.20040116 16.07405647 2.10016556 16.03818483 0 16 C0 10.72 0 5.44 0 0 Z M6 4 C6 6.64 6 9.28 6 12 C9.41656024 12.16677282 9.41656024 12.16677282 13 12 C13.66 11.34 14.32 10.68 15 10 C14.71016731 6.69316534 14.71016731 6.69316534 13 4 C10.66702567 3.95907063 8.33294775 3.95758277 6 4 Z " fill="#11A4BC" transform="translate(53,20)"/>
<path d="M0 0 C1.57043101 0.01330874 3.14079971 0.03717648 4.7109375 0.0703125 C5.51273438 0.07933594 6.31453125 0.08835937 7.140625 0.09765625 C9.12252273 0.12125027 11.10426731 0.15712185 13.0859375 0.1953125 C13.0859375 1.5153125 13.0859375 2.8353125 13.0859375 4.1953125 C8.4659375 4.5253125 3.8459375 4.8553125 -0.9140625 5.1953125 C-0.5840625 7.1753125 -0.2540625 9.1553125 0.0859375 11.1953125 C2.3959375 11.5253125 4.7059375 11.8553125 7.0859375 12.1953125 C7.0859375 11.5353125 7.0859375 10.8753125 7.0859375 10.1953125 C5.4359375 10.1953125 3.7859375 10.1953125 2.0859375 10.1953125 C2.0859375 8.8753125 2.0859375 7.5553125 2.0859375 6.1953125 C3.54386634 6.14131514 5.00236462 6.10252073 6.4609375 6.0703125 C7.27304687 6.04710937 8.08515625 6.02390625 8.921875 6 C11.0859375 6.1953125 11.0859375 6.1953125 13.0859375 8.1953125 C13.3359375 11.1953125 13.3359375 11.1953125 13.0859375 14.1953125 C10.59383311 16.68741689 9.08232962 16.45546911 5.67578125 16.46875 C4.64130859 16.45714844 4.64130859 16.45714844 3.5859375 16.4453125 C2.89628906 16.45304687 2.20664063 16.46078125 1.49609375 16.46875 C-3.66072957 16.44864543 -3.66072957 16.44864543 -5.9140625 14.1953125 C-6.1796875 11.4453125 -6.1796875 11.4453125 -6.1640625 8.1953125 C-6.16921875 7.1228125 -6.174375 6.0503125 -6.1796875 4.9453125 C-5.73933095 0.38632708 -4.47305968 0.22320657 0 0 Z " fill="#11A4BC" transform="translate(9.9140625,19.8046875)"/>
<path d="M0 0 C1.98 0 3.96 0 6 0 C6.33 3.63 6.66 7.26 7 11 C9.31 11 11.62 11 14 11 C14.33 7.37 14.66 3.74 15 0 C16.65 0 18.3 0 20 0 C20.05384521 2.29141286 20.09272087 4.58318188 20.125 6.875 C20.14820312 8.15117187 20.17140625 9.42734375 20.1953125 10.7421875 C20 14 20 14 18 16 C15.47207337 16.22555081 13.08944424 16.32438591 10.5625 16.3125 C9.5405957 16.33666992 9.5405957 16.33666992 8.49804688 16.36132812 C5.69754768 16.36407102 3.50909311 16.28598458 1.0390625 14.8984375 C-0.53511606 12.02230675 -0.28388797 9.55756179 -0.1875 6.3125 C-0.16042969 5.13300781 -0.13335938 3.95351563 -0.10546875 2.73828125 C-0.07066406 1.83464844 -0.03585938 0.93101563 0 0 Z " fill="#12A4BC" transform="translate(24,20)"/>
<path d="M0 0 C1.65 0 3.3 0 5 0 C5 5.28 5 10.56 5 16 C3.35 16 1.7 16 0 16 C0 10.72 0 5.44 0 0 Z " fill="#12A5BC" transform="translate(46,20)"/>
<path d="M0 0 C1.2684375 0.12375 1.2684375 0.12375 2.5625 0.25 C4.5625 3.25 4.5625 3.25 4.25 5.375 C3.5625 7.25 3.5625 7.25 2.5625 8.25 C0.125 8.4375 0.125 8.4375 -2.4375 8.25 C-3.0975 7.59 -3.7575 6.93 -4.4375 6.25 C-3.72185719 0.38172894 -3.72185719 0.38172894 0 0 Z " fill="#29AEC2" transform="translate(118.4375,14.75)"/>
<path d="M0 0 C2.625 0.375 2.625 0.375 5 1 C5.625 3.375 5.625 3.375 6 6 C5.34 6.66 4.68 7.32 4 8 C1.375 7.625 1.375 7.625 -1 7 C-1.625 4.625 -1.625 4.625 -2 2 C-1.34 1.34 -0.68 0.68 0 0 Z " fill="#17A7BD" transform="translate(138,15)"/>
</svg>
